<svg xmlns="http://www.w3.org/2000/svg" xmlns:xlink="http://www.w3.org/1999/xlink" viewBox="0 0 752.9 176.91"><defs><style>.cls-1{fill:#fff;}.cls-2{fill:url(#linear-gradient);}.cls-3{fill:url(#linear-gradient-2);}.cls-4{fill:url(#linear-gradient-3);}.cls-5{fill:url(#linear-gradient-4);}.cls-6{fill:url(#linear-gradient-5);}.cls-7{fill:url(#linear-gradient-6);}.cls-8{fill:url(#linear-gradient-7);}</style><linearGradient id="linear-gradient" x1="-7.83" y1="116.3" x2="119.14" y2="-45.47" gradientUnits="userSpaceOnUse"><stop offset="0.2" stop-color="#e10d12"/><stop offset="0.79" stop-color="#8e111e"/></linearGradient><linearGradient id="linear-gradient-2" x1="141.98" y1="189.97" x2="22.58" y2="95.17" gradientUnits="userSpaceOnUse"><stop offset="0.2" stop-color="#e81827"/><stop offset="0.53" stop-color="#8e111e"/></linearGradient><linearGradient id="linear-gradient-3" x1="269.35" y1="52.83" x2="982.15" y2="78.03" xlink:href="#linear-gradient"/><linearGradient id="linear-gradient-4" x1="269.41" y1="51.01" x2="982.21" y2="76.21" xlink:href="#linear-gradient"/><linearGradient id="linear-gradient-5" x1="269.49" y1="48.81" x2="982.29" y2="74.01" xlink:href="#linear-gradient"/><linearGradient id="linear-gradient-6" x1="269.57" y1="46.69" x2="982.37" y2="71.89" xlink:href="#linear-gradient"/><linearGradient id="linear-gradient-7" x1="269.63" y1="44.95" x2="982.43" y2="70.15" xlink:href="#linear-gradient"/></defs><title>BRUTTO-NETTO-LOGO</title><g id="Layer_2" data-name="Layer 2"><g id="Layer_1-2" data-name="Layer 1"><path class="cls-1" d="M116.66,9.29V63.18a36.94,36.94,0,0,1-10.5,7.42c2.78,1.18,5.65,2.12,8.37,3.44.73.35,1.43.71,2.13,1.09v91.55H15.6V9.29Z"/><path class="cls-2" d="M123.53,53.12a35.43,35.43,0,0,1-6.87,10.06,36.94,36.94,0,0,1-10.5,7.42c-1.71.54-3.43,1.06-5.13,1.64A173.28,173.28,0,0,0,65.76,88.46a71.94,71.94,0,0,0-8.8,6c-3-2.15-4.87-5.16-6.36-8.66h1.06q7.53,0,15,0a2.65,2.65,0,0,0,3-2.29c.49-1.77,1-3.53,1.48-5.3.76-2.7,0-3.76-2.8-3.76-6.36,0-12.72,0-19.07,0-.92,0-1.21-.25-1.17-1.14a34.23,34.23,0,0,0,0-3.79c0-.93.22-1.22,1.19-1.21,6.21.05,12.41,0,18.62,0a3,3,0,0,0,3.41-2.57c.54-1.95,1.07-3.91,1.63-5.86A2.25,2.25,0,0,0,72.8,58,2.45,2.45,0,0,0,70.43,57c-6.63,0-13.26,0-19.88,0-.86,0-1-.19-.75-1a32.6,32.6,0,0,1,1.94-4.65c2-3.76,4.75-6.78,8.81-8.34a20.91,20.91,0,0,1,16.31.59c1.93.83,2.83.5,3.77-1.39,1.65-3.29,3.29-6.57,5-9.84,1.16-2.26.91-3.11-1.33-4.32-7.07-3.84-14.64-4.76-22.51-3.78-8.52,1.07-16,4.36-22,10.68-5.65,6-8.71,13.23-10.25,21.2-.12.67-.32.9-1,.88-1.64,0-3.29,0-4.94,0a2.8,2.8,0,0,0-2.83,2.23q-.77,2.94-1.5,5.89c-.5,2,.47,3.23,2.51,3.24s4.06,0,6.09,0c.57,0,.83.13.82.76,0,1.53,0,3.06,0,4.59,0,.61-.19.8-.79.79-1.3,0-2.6,0-3.9,0a3.07,3.07,0,0,0-3.1,2.41q-.81,2.92-1.58,5.87c-.5,1.91.38,3,2.37,3.06s4.22,0,6.32,0c1.86,0,1.86,0,2.32,1.83a38.17,38.17,0,0,0,11.39,19.16l-1.16,1.1A118.11,118.11,0,0,0,25.2,126.16a128.11,128.11,0,0,0-9.6,16.72,130.81,130.81,0,0,0-6.7,17,114.58,114.58,0,0,0-4.11,16.94c-1.23,0-2.45,0-3.67.12C.18,177,0,176.62,0,175.75c0-8.47,0-16.94,0-25.4V1.63C0,0,0,0,1.57,0c30.49,0,61-.09,91.48,0,9.26,0,17.25,3,23.61,9.22h0a37.83,37.83,0,0,1,3.71,4.2,34.18,34.18,0,0,1,6.49,17.31A41.62,41.62,0,0,1,123.53,53.12Z"/><path class="cls-3" d="M116.66,75.13c-.7-.38-1.4-.74-2.13-1.09-2.72-1.32-5.59-2.26-8.37-3.44-1.71.54-3.43,1.06-5.13,1.64A173.28,173.28,0,0,0,65.76,88.46a71.94,71.94,0,0,0-8.8,6c3.87,2.94,8.3,3.74,13,3.37a22.59,22.59,0,0,0,8.46-2.37,2,2,0,0,1,3.06,1q2.66,5.34,5.26,10.72c.66,1.37.3,2.36-1.11,3.14a40.2,40.2,0,0,1-17.81,4.81c-7.51.37-14.65-.91-21.18-4.84a55.6,55.6,0,0,1-4.94-3.55l-1.16,1.1A118.11,118.11,0,0,0,25.2,126.16a128.11,128.11,0,0,0-9.6,16.72,130.81,130.81,0,0,0-6.7,17,114.58,114.58,0,0,0-4.11,16.94c2.14.19,4.28.08,6.42.08,27.31,0,54.62.11,81.93,0,16.57-.09,29.67-7.22,39.15-20.77a62.22,62.22,0,0,0,11.1-33.1A51,51,0,0,0,116.66,75.13ZM69.74,150.18a4.64,4.64,0,0,1,4.63-4.83c3-.07,6-.06,8.95,0A4.67,4.67,0,0,1,87.89,150c0,1.8,0,3.6,0,5.4a4.73,4.73,0,0,1-4.73,4.88c-1.49.07-3,0-4.47,0v0c-1.34,0-2.68,0-4,0a4.74,4.74,0,0,1-5-5C69.72,153.62,69.72,151.9,69.74,150.18Zm25.19-23.94a5.77,5.77,0,0,1,6.07-5.95q3.39,0,6.78,0a5.8,5.8,0,0,1,6,6c0,4.67,0,9.34,0,14h0c0,4.63,0,9.27,0,13.9,0,3.78-2.34,6.09-6.09,6.11-2.3,0-4.6,0-6.9,0a5.54,5.54,0,0,1-5.88-5.83Q94.87,140.38,94.93,126.24Zm-25.19,2.93a4.73,4.73,0,0,1,4.8-4.82q4.3-.06,8.61,0A4.76,4.76,0,0,1,87.89,129c.07,1.88.06,3.76,0,5.63a4.8,4.8,0,0,1-4.86,4.8c-1.46.06-2.91,0-4.37,0h-4a4.75,4.75,0,0,1-4.94-4.9C69.71,132.77,69.7,131,69.74,129.17Zm-24.52,0a4.84,4.84,0,0,1,4.85-4.81c1.38,0,2.76,0,4.14,0h4.14a4.79,4.79,0,0,1,4.92,5q0,2.64,0,5.28a4.62,4.62,0,0,1-4.61,4.86c-2.95.1-5.9.1-8.85,0a4.71,4.71,0,0,1-4.61-4.78C45.18,132.84,45.19,131,45.22,129.16Zm0,20.59a4.64,4.64,0,0,1,4.71-4.4c1.45,0,2.91,0,4.36,0h4.13a4.69,4.69,0,0,1,4.82,4.76c0,1.8,0,3.6,0,5.4a4.58,4.58,0,0,1-4.11,4.73,64.91,64.91,0,0,1-9.86,0,4.48,4.48,0,0,1-4-4.31C45.16,153.88,45.16,151.81,45.24,149.75Z"/><path class="cls-1" d="M204.35,65.78A29.85,29.85,0,0,1,207,67.4a17.36,17.36,0,0,1,3.47,3.23,19,19,0,0,1,3,5,18.17,18.17,0,0,1,1.23,7q0,5.88-2.12,9a12.36,12.36,0,0,1-5.19,4.55,18.35,18.35,0,0,1-6.43,1.62c-2.24.14-4.18.22-5.84.22H169a.39.39,0,0,1-.44-.44V96.9c0-.39.15-.59.44-.59a1.55,1.55,0,0,0,1.76-1.76V28.21a1.71,1.71,0,0,0-.51-1.25,1.73,1.73,0,0,0-1.25-.52.39.39,0,0,1-.44-.44v-.73c0-.39.15-.59.44-.59H197.1a18.78,18.78,0,0,1,12.71,5.14,19.11,19.11,0,0,1,4.24,6.09,20.18,20.18,0,0,1,1.61,8.3,23,23,0,0,1-3.34,12.4A37,37,0,0,1,204.35,65.78Zm-21.57-1.17c0,.59.29.78.88.59q2.21-.89,5.65-2.65a41.85,41.85,0,0,0,6.6-4.18,25.8,25.8,0,0,0,5.44-5.65,12,12,0,0,0,2.27-7,9.37,9.37,0,0,0-1.83-6.16,10.65,10.65,0,0,0-4.7-3.23,22.15,22.15,0,0,0-6.53-1.18q-3.67-.14-7.2-.14a.51.51,0,0,0-.58.58Zm11.89,22.31a9.92,9.92,0,0,0,5.43-1.32,4.26,4.26,0,0,0,2.05-3.82,8.28,8.28,0,0,0-2.35-5.87,24.69,24.69,0,0,0-4.4-3.82H195a60.75,60.75,0,0,1-7.05,3.31l-5.13,2v9.54Z"/><path class="cls-1" d="M267.33,44.21a23.18,23.18,0,0,1-4.33,14,41.83,41.83,0,0,1-10.06,9.91c-.39.39-.49.74-.29,1l11,25.39a2.64,2.64,0,0,0,2.64,1.76.52.52,0,0,1,.59.59l.44.74c.09.29,0,.44-.3.44H251.4a.43.43,0,0,1-.3-.15l-.14-.15c-.1,0-.15,0-.15-.14l-.29-.74a.4.4,0,0,1-.15-.29l.3-.3h.14a1.36,1.36,0,0,0,1-.44,1.28,1.28,0,0,0-.14-1.32l-8.62-20a.75.75,0,0,0-.88-.29q-2.64,1.17-4.75,2c-1.41.54-2.56,1-3.43,1.25-.3,0-.44.19-.44.58V94.55A1.75,1.75,0,0,0,234,95.8a1.48,1.48,0,0,0,1.14.51.52.52,0,0,1,.59.59v.74c0,.29-.2.44-.59.44H219.62a.39.39,0,0,1-.44-.44V96.9a.52.52,0,0,1,.59-.59,1.76,1.76,0,0,0,1.76-1.76V28.35a1.83,1.83,0,0,0-.59-1.32,1.8,1.8,0,0,0-1.32-.44c-.29,0-.44-.19-.44-.59v-.73a.39.39,0,0,1,.44-.44h29.29a18.65,18.65,0,0,1,6.65,1.25,17.62,17.62,0,0,1,5.92,3.74,19.11,19.11,0,0,1,4.24,6.09A20.18,20.18,0,0,1,267.33,44.21ZM233.57,65.34c0,.4.19.49.58.3,1.26-.49,3.09-1.27,5.47-2.35a39.16,39.16,0,0,0,7.07-4.19,30.11,30.11,0,0,0,6.05-5.87,12,12,0,0,0,2.55-7.56,9.42,9.42,0,0,0-1.89-6.31,10.49,10.49,0,0,0-4.89-3.15,23.43,23.43,0,0,0-6.7-1c-2.48,0-4.94-.08-7.36-.08-.59,0-.88.25-.88.74Z"/><path class="cls-1" d="M270.85,26.3V25a.4.4,0,0,1,.29-.15h15.71a.39.39,0,0,1,.44.44V26c0,.4-.15.59-.44.59a1.55,1.55,0,0,0-1.76,1.76V82.81a10.24,10.24,0,0,0,1,4,7.85,7.85,0,0,0,2.28,2.87,7,7,0,0,0,4.48,1.24h3.67A7,7,0,0,0,301,89.64a7.85,7.85,0,0,0,2.28-2.87,10.24,10.24,0,0,0,1-4V28.35a1.55,1.55,0,0,0-.58-1.32,1.62,1.62,0,0,0-1.18-.44h-.14l-.3-.15V26.3c0-.1,0-.15-.07-.15s-.07,0-.07-.15v-.73c0-.1,0-.15.14-.15V25a.43.43,0,0,1,.3-.15h15.7a.39.39,0,0,1,.44.44V26c0,.4-.14.59-.44.59a1.56,1.56,0,0,0-1.76,1.76V86a9.38,9.38,0,0,1-1.54,5,16.33,16.33,0,0,1-4.18,4.48,22.57,22.57,0,0,1-13.21,4.33H292a21.56,21.56,0,0,1-7.19-1.18,21.93,21.93,0,0,1-6-3.15A16.33,16.33,0,0,1,274.59,91a9.38,9.38,0,0,1-1.54-5V28.35a1.81,1.81,0,0,0-.44-1.32,2.67,2.67,0,0,0-1.32-.44h-.15l-.15-.15Z"/><path class="cls-1" d="M328.39,38.48l-6.46-13.06c0-.39.24-.59.73-.59h55.19c.49,0,.74.2.74.59l-6.46,13.06c0,.39-.15.59-.44.59h-.88c-.3,0-.44-.2-.44-.59a1.73,1.73,0,0,0-.52-1.25,1.7,1.7,0,0,0-1.24-.51H356.72c-.3,0-.44.2-.44.59V94.55A1.55,1.55,0,0,0,358,96.31a.52.52,0,0,1,.58.59v.74c0,.29-.19.44-.58.44H342.33l-.15-.15c-.09,0-.14-.05-.14-.15V96.61l.29-.3h.15a2.57,2.57,0,0,0,1.32-.44,2.16,2.16,0,0,0,.44-1.32V37.31c0-.39-.15-.59-.44-.59H332.06a1.69,1.69,0,0,0-1.25.51,2.31,2.31,0,0,0-.66,1.25c0,.39-.15.59-.44.59H329A.52.52,0,0,1,328.39,38.48Z"/><path class="cls-1" d="M388.42,38.48,382,25.42c0-.39.25-.59.74-.59h55.19c.49,0,.73.2.73.59l-6.46,13.06c0,.39-.14.59-.44.59h-.88c-.29,0-.44-.2-.44-.59a1.74,1.74,0,0,0-1.76-1.76H416.75c-.29,0-.44.2-.44.59V94.55a1.55,1.55,0,0,0,1.76,1.76.52.52,0,0,1,.59.59v.74c0,.29-.2.44-.59.44h-15.7l-.15-.15a.13.13,0,0,1-.15-.15V96.61l.3-.3h.14a2.57,2.57,0,0,0,1.32-.44,2.1,2.1,0,0,0,.44-1.32V37.31c0-.39-.14-.59-.44-.59H392.09a1.71,1.71,0,0,0-1.25.51,2.45,2.45,0,0,0-.66,1.25c0,.39-.14.59-.44.59H389A.52.52,0,0,1,388.42,38.48Z"/><path class="cls-1" d="M458.5,99.25A20.79,20.79,0,0,1,451.28,98a21.34,21.34,0,0,1-5.89-3.23,17.39,17.39,0,0,1-4.05-4.47,9.66,9.66,0,0,1-1.54-5.14v-48A9.66,9.66,0,0,1,441.34,32a17.59,17.59,0,0,1,4.05-4.48,21.32,21.32,0,0,1,5.89-3.22,20.79,20.79,0,0,1,7.22-1.25h5.3a20.32,20.32,0,0,1,7.07,1.25,22.42,22.42,0,0,1,6,3.22A17,17,0,0,1,481,32a9.59,9.59,0,0,1,1.55,5.14v48A9.59,9.59,0,0,1,481,90.3a16.82,16.82,0,0,1-4.12,4.47,22.44,22.44,0,0,1-6,3.23,20.32,20.32,0,0,1-7.07,1.25h-5.3Zm-7-17.34a9.09,9.09,0,0,0,.88,4.12A8.49,8.49,0,0,0,454.7,89a6.61,6.61,0,0,0,4.47,1.33h3.67A6.37,6.37,0,0,0,467.25,89a9,9,0,0,0,2.2-2.94,15.63,15.63,0,0,0,1-4.12V40.56a15.53,15.53,0,0,0-1-4.12,7.7,7.7,0,0,0-2.2-2.8,7.57,7.57,0,0,0-4.41-1.32h-3.67a7.88,7.88,0,0,0-4.47,1.32,7.33,7.33,0,0,0-2.28,2.8,9.06,9.06,0,0,0-.88,4.12V81.91Z"/><path class="cls-4" d="M485.89,97.93l-.15-.15V96.61h.15c0-.2.09-.3.29-.3a1.76,1.76,0,0,0,1.32-.44,2.16,2.16,0,0,0,.44-1.32V28.21A1.61,1.61,0,0,0,487.5,27a1.83,1.83,0,0,0-1.32-.59c-.2,0-.29,0-.29-.14l-.15-.15V25h.15c0-.2.09-.3.29-.3H500q3.38,0,7,3.89a52.8,52.8,0,0,1,6.83,9.18,88.27,88.27,0,0,1,5.43,10.64,60.93,60.93,0,0,1,3,8.29h.15V28.21a1.71,1.71,0,0,0-.59-1.18,1.83,1.83,0,0,0-1.32-.59c-.2,0-.3,0-.3-.14s-.14-.05-.14-.15V25l.14-.15c.1,0,.15,0,.15-.07s0-.08.15-.08h15.85c.29,0,.44.2.44.59V26c0,.3-.2.44-.59.44a1.78,1.78,0,0,0-1.76,1.77V94.55a1.76,1.76,0,0,0,1.76,1.76.52.52,0,0,1,.59.59v.74a.39.39,0,0,1-.44.44H522.44a48.18,48.18,0,0,0-1-8.81q-1-5.28-2.79-11.3t-4.11-12.19q-2.35-6.16-4.77-11.52a99.54,99.54,0,0,0-4.85-9.47,23.73,23.73,0,0,0-4.47-5.87c-.3-.29-.44-.19-.44.29V94.55a1.68,1.68,0,0,0,.52,1.25,1.77,1.77,0,0,0,1.28.51.52.52,0,0,1,.59.59v.74c0,.29-.2.44-.59.44h-15.6C486,98.08,485.89,98,485.89,97.93Z"/><path class="cls-5" d="M540.05,97.64v-.89a.39.39,0,0,1,.44-.44h.29a1.39,1.39,0,0,0,1-.44,2.16,2.16,0,0,0,.44-1.32V28.21a1.61,1.61,0,0,0-.44-1.18l-.15-.15-.14-.14h-.3v-.15h-.44v-.15h-.29c-.29,0-.44-.09-.44-.29v-.88c0-.39.15-.59.44-.59h44.33a.65.65,0,0,1,.73.74l-6.46,13.06c0,.39-.14.59-.44.59h-.88c-.29,0-.44-.2-.44-.59a1.74,1.74,0,0,0-1.76-1.76H555a.64.64,0,0,0-.73.73V50.52a.8.8,0,0,0,.43.8,1.09,1.09,0,0,0,.88.08,12.24,12.24,0,0,1,2.91-1,19.63,19.63,0,0,1,3.93-.36,14.47,14.47,0,0,1,10.35,3.37.87.87,0,0,1,.43.74V65.34c0,1-.39,1.28-1.16.88a35.38,35.38,0,0,0-3.94-2.13,13,13,0,0,0-5.68-1.24,11.86,11.86,0,0,0-4.07.73,30.88,30.88,0,0,0-3.5,1.47c-.39.2-.58.44-.58.73V85.45c0,.39.24.59.73.59h20.55a1.87,1.87,0,0,0,1.25-.44,1.47,1.47,0,0,0,.51-1.18c0-.38.15-.58.44-.58h.88a.38.38,0,0,1,.44.44l6.46,13.21c0,.39-.24.59-.73.59H540.49A.39.39,0,0,1,540.05,97.64Z"/><path class="cls-6" d="M595.39,38.48l-6.46-13.06c0-.39.24-.59.73-.59h55.19c.49,0,.74.2.74.59l-6.46,13.06c0,.39-.15.59-.44.59h-.88c-.3,0-.44-.2-.44-.59a1.76,1.76,0,0,0-1.76-1.76H623.72c-.3,0-.44.2-.44.59V94.55A1.55,1.55,0,0,0,625,96.31a.52.52,0,0,1,.59.59v.74c0,.29-.2.44-.59.44H609.33l-.15-.15c-.09,0-.14-.05-.14-.15V96.61l.29-.3h.15a2.57,2.57,0,0,0,1.32-.44,2.16,2.16,0,0,0,.44-1.32V37.31c0-.39-.15-.59-.44-.59H599.06a1.71,1.71,0,0,0-1.25.51,2.31,2.31,0,0,0-.66,1.25c0,.39-.15.59-.44.59H596A.52.52,0,0,1,595.39,38.48Z"/><path class="cls-7" d="M655.42,38.48,649,25.42c0-.39.25-.59.74-.59h55.19c.49,0,.73.2.73.59l-6.46,13.06c0,.39-.14.59-.44.59h-.88c-.29,0-.44-.2-.44-.59a1.74,1.74,0,0,0-1.76-1.76H683.75c-.29,0-.44.2-.44.59V94.55a1.55,1.55,0,0,0,1.76,1.76.52.52,0,0,1,.59.59v.74c0,.29-.2.44-.59.44h-15.7l-.15-.15a.13.13,0,0,1-.15-.15V96.61l.3-.3h.14a2.57,2.57,0,0,0,1.32-.44,2.1,2.1,0,0,0,.44-1.32V37.31c0-.39-.14-.59-.44-.59H659.09a1.72,1.72,0,0,0-1.25.51,2.45,2.45,0,0,0-.66,1.25c0,.39-.14.59-.44.59H656A.52.52,0,0,1,655.42,38.48Z"/><path class="cls-8" d="M725.5,99.25A20.79,20.79,0,0,1,718.28,98a21.34,21.34,0,0,1-5.89-3.23,17.39,17.39,0,0,1-4-4.47,9.66,9.66,0,0,1-1.54-5.14v-48A9.66,9.66,0,0,1,708.34,32a17.59,17.59,0,0,1,4-4.48,21.32,21.32,0,0,1,5.89-3.22,20.79,20.79,0,0,1,7.22-1.25h5.3a20.32,20.32,0,0,1,7.07,1.25,22.42,22.42,0,0,1,6,3.22A17,17,0,0,1,748,32a9.59,9.59,0,0,1,1.55,5.14v48A9.59,9.59,0,0,1,748,90.3a16.82,16.82,0,0,1-4.12,4.47,22.44,22.44,0,0,1-6,3.23,20.32,20.32,0,0,1-7.07,1.25h-5.3Zm-7-17.34a9.09,9.09,0,0,0,.88,4.12A8.49,8.49,0,0,0,721.7,89a6.61,6.61,0,0,0,4.47,1.33h3.67A6.37,6.37,0,0,0,734.25,89a9,9,0,0,0,2.2-2.94,15.63,15.63,0,0,0,1-4.12V40.56a15.53,15.53,0,0,0-1-4.12,7.7,7.7,0,0,0-2.2-2.8,7.57,7.57,0,0,0-4.41-1.32h-3.67a7.88,7.88,0,0,0-4.47,1.32,7.33,7.33,0,0,0-2.28,2.8,9.06,9.06,0,0,0-.88,4.12V81.91Z"/><path class="cls-1" d="M183.6,159.91a19,19,0,0,1-7.53-1.48,17.93,17.93,0,0,1-6-4.16,18.84,18.84,0,0,1-4-6.22,21.25,21.25,0,0,1,0-15.17A18.3,18.3,0,0,1,176,122.61a18.87,18.87,0,0,1,21.19,4.28l-2.73,2.73a13.91,13.91,0,0,0-4.77-3.42,15.31,15.31,0,0,0-6.24-1.23,14.49,14.49,0,0,0-5.84,1.15,14,14,0,0,0-4.65,3.26,14.41,14.41,0,0,0-3.07,4.93,17.29,17.29,0,0,0-1.07,6.16,17.1,17.1,0,0,0,1.1,6.19,15.22,15.22,0,0,0,3.06,5,13.7,13.7,0,0,0,4.66,3.25,14.66,14.66,0,0,0,5.86,1.15,15.65,15.65,0,0,0,6.44-1.26,14.14,14.14,0,0,0,4.79-3.45l2.74,2.8a18.42,18.42,0,0,1-6,4.24A19,19,0,0,1,183.6,159.91Z"/><path class="cls-1" d="M228.08,159.37l15.44-37.69h3l15.29,37.69h-4.33l-13.31-33.31h1.59l-13.42,33.31Zm7.06-9.81V146h19.72v3.56Z"/><path class="cls-1" d="M295.61,159.37V121.68h4v37.69Zm2.63,0V155.7H319v3.67Z"/><path class="cls-1" d="M366.81,159.91a19,19,0,0,1-7.53-1.48,18,18,0,0,1-6-4.16,18.84,18.84,0,0,1-4-6.22,21.25,21.25,0,0,1,0-15.17,18.3,18.3,0,0,1,9.94-10.27,19.88,19.88,0,0,1,15.2.06,19,19,0,0,1,6,4.22l-2.74,2.73a13.91,13.91,0,0,0-4.77-3.42,15.31,15.31,0,0,0-6.24-1.23,14.44,14.44,0,0,0-5.83,1.15,13.93,13.93,0,0,0-4.66,3.26,14.56,14.56,0,0,0-3.07,4.93,17.29,17.29,0,0,0-1.07,6.16,17.1,17.1,0,0,0,1.1,6.19,15.07,15.07,0,0,0,3.07,5,13.57,13.57,0,0,0,4.65,3.25A14.69,14.69,0,0,0,366.7,156a15.65,15.65,0,0,0,6.44-1.26,14,14,0,0,0,4.79-3.45l2.74,2.8a18.49,18.49,0,0,1-6,4.24A19.09,19.09,0,0,1,366.81,159.91Z"/><path class="cls-1" d="M428.81,159.91a14.5,14.5,0,0,1-7.31-1.83,13.6,13.6,0,0,1-5.06-5,14,14,0,0,1-1.87-7.2V121.68h4.06v23.94a11.22,11.22,0,0,0,1.31,5.53,9,9,0,0,0,3.64,3.61,10.84,10.84,0,0,0,5.23,1.26,10.48,10.48,0,0,0,5.18-1.26,9.36,9.36,0,0,0,3.62-3.58,10.89,10.89,0,0,0,1.34-5.51v-24h4v24.21a14.13,14.13,0,0,1-1.84,7.18,13.39,13.39,0,0,1-5,5A14.34,14.34,0,0,1,428.81,159.91Z"/><path class="cls-1" d="M479.48,159.37V121.68h4v37.69Zm2.63,0V155.7h20.76v3.67Z"/><path class="cls-1" d="M532.94,159.37l15.44-37.69h3l15.29,37.69h-4.33L549,126.06h1.59l-13.42,33.31Zm7.06-9.81V146h19.72v3.56Z"/><path class="cls-1" d="M592.31,125.35v-3.67h30.56v3.67Zm13.25,34V122.72h4.06v36.65Z"/><path class="cls-1" d="M671.07,159.91a18.29,18.29,0,0,1-7.42-1.5,18.87,18.87,0,0,1-6-4.17,19.28,19.28,0,0,1-4-6.19,19.68,19.68,0,0,1-1.45-7.58,20,20,0,0,1,1.42-7.61,18.78,18.78,0,0,1,10-10.25,19.26,19.26,0,0,1,14.81,0,18.66,18.66,0,0,1,10,10.27,21.13,21.13,0,0,1,0,15.23,18.81,18.81,0,0,1-9.91,10.3A18.13,18.13,0,0,1,671.07,159.91ZM671,156a14.07,14.07,0,0,0,12.79-7.55,16.62,16.62,0,0,0,1.89-8,16.86,16.86,0,0,0-1.09-6.16,15.38,15.38,0,0,0-3.07-4.93,13.81,13.81,0,0,0-4.63-3.26A14.6,14.6,0,0,0,671,125a14,14,0,0,0-12.73,7.5,16.62,16.62,0,0,0-1.89,8,17.1,17.1,0,0,0,1.09,6.19,15.24,15.24,0,0,0,3.07,5,13.7,13.7,0,0,0,4.66,3.25A14.51,14.51,0,0,0,671,156Z"/><path class="cls-1" d="M725,159.37V121.68h4v37.69Zm2.57-16.87v-3.4h11a7.9,7.9,0,0,0,5.69-1.89,7.43,7.43,0,0,0,0-10.08,7.78,7.78,0,0,0-5.69-1.94h-11v-3.51h11a13.74,13.74,0,0,1,6.29,1.34,9.65,9.65,0,0,1,4,3.7,10.34,10.34,0,0,1,1.4,5.37,10.56,10.56,0,0,1-1.4,5.48,9.27,9.27,0,0,1-4,3.64,14.14,14.14,0,0,1-6.29,1.29Zm20.21,16.87L733.62,142l3.89-1.26,15.39,18.68Z"/></g></g></svg>